<svg id="Layer_1" data-name="Layer 1" xmlns="http://www.w3.org/2000/svg" viewBox="0 0 960.3 828.772">
  <defs>
    <style>
      .cls-1 {
        fill: #000;
      }
    </style>
  </defs>
  <title>a89e2008-6037-4b21-a247-774ca24af5bf</title>
  <g>
    <g>
      <path class="cls-1" d="M33.822,765.009c.817.272,1.224.611,1.224,1.224v5.512c0,.885-.408,1.226-1.292,1.226H17.625c-4.15,0-6.26,1.428-6.26,4.423v.953c0,2.382.953,3.946,4.016,5.1L28.1,788.417C34.638,791,37.564,794.2,37.564,802.1V804c0,10.072-7.826,13.066-19.6,13.066a104.962,104.962,0,0,1-16.81-1.428A1.278,1.278,0,0,1,0,814.141v-5.172c0-.817.409-1.224,1.294-1.224H20.62c4.082,0,6.192-1.226,6.192-4.219v-.885c0-2.927-1.362-4.287-4.9-5.649l-13.27-4.967c-5.648-2.11-8.1-5.989-8.1-13.883v-1.5c0-10.072,7.009-13,19.054-13A69.559,69.559,0,0,1,33.822,765.009Z"/>
      <path class="cls-1" d="M95.953,790.46c0,20.551-4.695,26.607-22.048,26.607S51.857,811.01,51.857,790.46c0-20.688,4.695-26.812,22.048-26.812S95.953,769.772,95.953,790.46Zm-33.277,0c0,13.2,1.837,17.285,11.229,17.285s11.229-4.084,11.229-17.285c0-13.338-1.837-17.489-11.229-17.489S62.677,777.122,62.677,790.46Z"/>
      <path class="cls-1" d="M122.5,764.056a.9.9,0,0,1,1.021,1.021V807.4h22.32a.9.9,0,0,1,1.022,1.021v7.282a.9.9,0,0,1-1.022,1.021H113.854c-.681,0-1.021-.34-1.021-1.088V765.077a.9.9,0,0,1,1.021-1.021Z"/>
      <path class="cls-1" d="M201.776,764.056c.749,0,1.022.272,1.022,1.021V790.46c0,21.3-4.287,26.607-21.5,26.607s-21.573-5.308-21.573-26.607V765.077c0-.749.272-1.021,1.021-1.021h8.643c.749,0,1.021.272,1.021,1.021V790.46c0,13.815,2.178,17.285,10.889,17.285,8.643,0,10.819-3.471,10.819-17.285V765.077c0-.749.273-1.021,1.021-1.021Z"/>
      <path class="cls-1" d="M241.18,772.971c-9.391,0-11.025,4.082-11.025,17.353s1.633,17.421,11.025,17.421h13.95a.9.9,0,0,1,1.021,1.021v5.512c0,1.088-.545,1.5-1.565,1.769a63.226,63.226,0,0,1-11.772,1.021,24.487,24.487,0,0,1,1.156,6.4c0,3.742-2.314,5.308-7.213,5.308a24.177,24.177,0,0,1-5.376-.545,1.188,1.188,0,0,1-.817-1.224v-4.151c0-.681.272-.953.953-.953H233.9c2.382,0,3.744,0,3.744-1.769a22.2,22.2,0,0,0-.341-3.2c-14.154-.953-17.965-7.622-17.965-26.607,0-20.62,4.491-26.677,21.844-26.677a72.877,72.877,0,0,1,13.405,1.021c1.021.273,1.565.681,1.565,1.837v5.445a.9.9,0,0,1-1.021,1.021Z"/>
      <path class="cls-1" d="M314.609,790.46c0,20.551-4.695,26.607-22.048,26.607s-22.048-6.057-22.048-26.607c0-20.688,4.695-26.812,22.048-26.812S314.609,769.772,314.609,790.46Zm-17.625-37.5c1.565,0,2.246-.477,3.063-2.246.34-.749.611-.885,1.224-.681l2.926.817c.681.205.885.613.749,1.362-1.633,6.192-3.2,7.894-7.145,7.894-3.539,0-7.486-2.654-9.731-2.654-1.5,0-2.246.477-3.063,2.246-.272.747-.611.885-1.224.679l-2.926-.817c-.613-.2-.885-.611-.749-1.428,1.633-6.125,3.265-7.826,7.145-7.826C290.791,750.31,294.807,752.964,296.984,752.964Zm-15.652,37.5c0,13.2,1.837,17.285,11.229,17.285s11.229-4.084,11.229-17.285c0-13.338-1.837-17.489-11.229-17.489S281.332,777.122,281.332,790.46Z"/>
      <path class="cls-1" d="M366.6,764.056a.9.9,0,0,1,1.021,1.021v7.281a.9.9,0,0,1-1.021,1.021h-24.43V786.24h22.32a.953.953,0,0,1,1.09,1.021V794.2a.953.953,0,0,1-1.09,1.021h-22.32V807.4H366.6a.9.9,0,0,1,1.021,1.021v7.282a.9.9,0,0,1-1.021,1.021H332.508c-.681,0-1.021-.34-1.021-1.088V765.077a.9.9,0,0,1,1.021-1.021Z"/>
      <path class="cls-1" d="M416.144,765.009c.817.272,1.224.611,1.224,1.224v5.512c0,.885-.408,1.226-1.292,1.226H399.948c-4.15,0-6.26,1.428-6.26,4.423v.953c0,2.382.953,3.946,4.016,5.1l12.725,4.967c6.534,2.586,9.459,5.785,9.459,13.679V804c0,10.072-7.826,13.066-19.6,13.066a104.962,104.962,0,0,1-16.81-1.428,1.278,1.278,0,0,1-1.156-1.5v-5.172c0-.817.409-1.224,1.294-1.224h19.326c4.082,0,6.192-1.226,6.192-4.219v-.885c0-2.927-1.362-4.287-4.9-5.649l-13.27-4.967c-5.648-2.11-8.1-5.989-8.1-13.883v-1.5c0-10.072,7.009-13,19.054-13A69.559,69.559,0,0,1,416.144,765.009Z"/>
      <path class="cls-1" d="M487.874,771.813l11.977,43.826c.136.817-.205,1.088-.885,1.088h-8.711c-.613,0-.681-.272-.885-1.088l-3.88-14.154H467.254l-3.946,14.154c-.205.817-.273,1.088-.953,1.088h-8.643c-.749,0-1.021-.272-.885-1.088l12.181-43.826c2.041-7.417,3.4-8.166,11.3-8.166C484.539,763.647,485.833,764.4,487.874,771.813ZM474.6,774.6l-4.968,18.032H483.11l-4.9-18.032c-.477-1.633-.545-1.975-1.905-1.975C475.148,772.63,475.012,772.971,474.6,774.6Z"/>
      <path class="cls-1" d="M567.632,763.987c.681,0,.817.477.885,1.09l4.9,50.562c.069.749-.34,1.088-1.021,1.088h-8.643c-.679,0-.953-.34-1.021-1.088l-2.994-32.665-12.249,31.1a1.448,1.448,0,0,1-1.43,1.021H539.6a1.57,1.57,0,0,1-1.43-1.021l-12.181-31.1-2.994,32.665c-.069.749-.341,1.088-1.022,1.088h-8.643c-.679,0-1.088-.34-1.021-1.088l4.9-50.494c.068-.681.2-1.088.885-1.088h8.234c2.178,0,3,.543,3.88,2.654l12.657,33.141,12.658-33.141c.817-2.178,1.7-2.723,3.878-2.723Z"/>
      <path class="cls-1" d="M628.812,778.279c0,7.349-2.109,10.887-7.69,11.909v.2c6.805.817,8.846,4.967,8.846,12.249,0,11.093-5.648,14.426-18.374,14.426-5.58,0-14.63-.2-20.618-.679-.817-.068-1.021-.273-1.021-.953V765.349c0-.749.2-.885,1.021-.953,5.989-.545,13.405-.749,18.987-.749C623.165,763.647,628.812,767.322,628.812,778.279Zm-28.173-5.308v13.541h6.941c7.622,0,10.412-.885,10.412-6.6,0-5.513-2.722-6.941-9.12-6.941Zm0,21.231v13.543h10.208c5.851,0,8.3-1.362,8.3-6.534,0-5.58-2.79-7.009-8.234-7.009Z"/>
      <path class="cls-1" d="M656.1,764.056c.679,0,1.021.34,1.021,1.088v50.494c0,.749-.341,1.088-1.021,1.088h-8.643c-.681,0-1.021-.34-1.021-1.088V765.145c0-.749.34-1.088,1.021-1.088Z"/>
      <path class="cls-1" d="M710.749,764.056a.9.9,0,0,1,1.021,1.021v7.281a.9.9,0,0,1-1.021,1.021h-24.43V786.24h22.32a.953.953,0,0,1,1.09,1.021V794.2a.953.953,0,0,1-1.09,1.021h-22.32V807.4h24.43a.9.9,0,0,1,1.021,1.021v7.282a.9.9,0,0,1-1.021,1.021H676.655c-.681,0-1.021-.34-1.021-1.088V765.077a.9.9,0,0,1,1.021-1.021Z"/>
      <path class="cls-1" d="M771.316,764.056c.679,0,1.021.34,1.021,1.088v50.494c0,.749-.341,1.088-1.021,1.088h-6.33a3.576,3.576,0,0,1-3.4-1.7l-22.32-32.733v33.346c0,.749-.341,1.088-1.021,1.088H729.6c-.681,0-1.021-.34-1.021-1.088V765.145c0-.749.34-1.088,1.021-1.088h6.736c2.723,0,3.063.611,4.219,2.245l21.1,30.827V765.145c0-.749.34-1.088,1.021-1.088Z"/>
      <path class="cls-1" d="M827.255,764.056a.953.953,0,0,1,1.09,1.021v7.281a.953.953,0,0,1-1.09,1.021H813.033v42.26c0,.749-.34,1.088-1.021,1.088H803.37c-.681,0-1.021-.34-1.021-1.088v-42.26H788.126a.9.9,0,0,1-1.021-1.021v-7.281a.9.9,0,0,1,1.021-1.021Z"/>
      <path class="cls-1" d="M869.246,771.813l11.977,43.826c.136.817-.205,1.088-.885,1.088h-8.711c-.613,0-.681-.272-.885-1.088l-3.88-14.154H848.626l-3.946,14.154c-.2.817-.273,1.088-.953,1.088h-8.643c-.749,0-1.021-.272-.885-1.088l12.181-43.826c2.041-7.417,3.4-8.166,11.3-8.166C865.911,763.647,867.2,764.4,869.246,771.813Zm-13.27,2.791-4.968,18.032h13.473l-4.9-18.032c-.477-1.633-.545-1.975-1.905-1.975C856.519,772.63,856.384,772.971,855.976,774.6Z"/>
      <path class="cls-1" d="M905.315,764.056c.679,0,1.021.34,1.021,1.088v50.494c0,.749-.341,1.088-1.021,1.088h-8.643c-.681,0-1.021-.34-1.021-1.088V765.145c0-.749.34-1.088,1.021-1.088Z"/>
      <path class="cls-1" d="M956.558,765.009c.817.272,1.224.611,1.224,1.224v5.512c0,.885-.408,1.226-1.292,1.226H940.361c-4.15,0-6.26,1.428-6.26,4.423v.953c0,2.382.953,3.946,4.016,5.1l12.725,4.967C957.374,791,960.3,794.2,960.3,802.1V804c0,10.072-7.826,13.066-19.6,13.066a104.962,104.962,0,0,1-16.81-1.428,1.278,1.278,0,0,1-1.156-1.5v-5.172c0-.817.409-1.224,1.294-1.224h19.326c4.082,0,6.192-1.226,6.192-4.219v-.885c0-2.927-1.362-4.287-4.9-5.649l-13.27-4.967c-5.648-2.11-8.1-5.989-8.1-13.883v-1.5c0-10.072,7.009-13,19.054-13A69.559,69.559,0,0,1,956.558,765.009Z"/>
    </g>
    <path class="cls-1" d="M639.616,435.963c-28.381,10.077-38.494,4.306-53.8-4.424-18.428-10.508-41.358-23.589-93.707-13.941-5.343.994-10.047-2.116-12.373-4.052a28.347,28.347,0,0,1-7.673-10.391h69.322c21.651,0,32.558,5.431,43.106,10.684,8.9,4.435,17.984,8.956,30.756,8.956,9.164,0,20.23-2.328,34.495-8.689a13.644,13.644,0,0,0-11.116-24.922c-22.384,9.983-28.929,6.722-41.97.228l-.756-.375c.056.027.117.057.171.084V98.665c0-39.565-32.091-54.31-52.319-54.31-25.291,0-30.684-.027-35.9-.053-4.172-.02-8.148-.04-21.73-.045C472.658,29.423,455.9,16.985,437.53,9.223,416.808.465,394.725-2.121,373.667,1.746c-23.877,4.385-46.4,16.726-66.936,36.682a14.272,14.272,0,0,0-3.753,14.031c2.679,10.275,19.164,24.238,22.441,26.932a134.948,134.948,0,0,0,39.488,22.645v248.8a51.737,51.737,0,0,0,15.776,37.279,52.821,52.821,0,0,0,36.545,15.042h26.3a56.251,56.251,0,0,0,18.749,31.362c10.354,8.62,22.705,12.141,34.779,9.918,42.544-7.843,59.166,1.639,75.242,10.807,11.6,6.616,23.456,13.379,41.376,13.379,9.637,0,21.027-1.957,35.075-6.944a13.644,13.644,0,1,0-9.129-25.715ZM334.213,50.387c36.205-29.98,70.03-25.608,92.692-16.028a110.912,110.912,0,0,1,33.133,22.078c-22.1,19.288-45.3,27.4-69.1,24.124C363.992,76.854,343.546,60.038,334.213,50.387ZM442.259,249.352V375.866H417.227a25.367,25.367,0,0,1-25.032-25.032V108.12c35.382,3.184,64.365-12.679,85.251-30.682,8.944,13.843,13.981,28.489,13.981,40.98V170.9H442.259V198.16l76.456.029V118.417c0-15.38-4.783-31.559-13.083-46.837l2.08.011c5.25.025,10.677.052,36.035.052a29.913,29.913,0,0,1,15.1,5.075c6.683,4.639,9.932,11.818,9.932,21.946V378.791a120.89,120.89,0,0,0-27.4-2.925H469.546V276.64h49.169V249.352Z"/>
  </g>
</svg>
